<svg width="787" height="795" viewBox="0 0 787 795" fill="none" xmlns="http://www.w3.org/2000/svg">
<path d="M740.654 196.939C672.293 101.538 600.873 77.3265 562.555 71.5447C551.581 69.9185 541.686 64.1366 535.21 54.9218C520.818 34.3239 492.394 7.58286 439.684 0.897588C407.123 -3.25812 381.577 7.76354 365.207 18.6045C355.852 24.9284 344.338 26.5546 333.545 24.025C301.882 16.2556 245.574 13.0033 180.811 55.2832C130.979 87.8061 108.672 128.641 98.7777 155.02C94.9998 165.139 87.2642 173.269 77.5497 177.786C58.6604 186.82 33.2948 205.069 18.5432 242.29C2.17246 283.847 10.088 320.526 18.3633 342.027C21.7814 350.881 21.7814 360.638 18.3633 369.491C2.17249 414.843 -24.4524 524.517 48.5862 625.519C121.085 725.798 211.754 746.396 273.998 746.396C293.068 746.396 309.258 744.409 321.671 742.24C332.465 740.253 343.619 742.783 352.434 749.468C377.08 767.897 423.674 795 483.04 795C500.13 795 518.48 792.651 537.549 787.231C619.403 763.923 655.922 704.116 670.673 669.245C674.991 659.126 683.086 651.176 693.341 647.201C714.029 638.89 741.913 620.099 760.443 576.735C776.993 537.888 771.057 506.63 762.421 486.935C757.924 476.456 757.204 464.711 761.882 454.412C782.75 407.254 814.772 300.29 740.654 196.758V196.939ZM718.706 212.658C783.649 303.18 758.644 394.787 739.754 438.512C734.537 450.437 724.103 459.291 711.33 461.64C688.124 465.976 652.504 476.817 615.445 504.281C606.45 510.966 595.116 513.134 584.322 510.785C555.539 504.461 507.146 495.066 466.309 492.175C452.637 491.272 440.584 483.321 434.108 471.216L364.127 337.691C357.831 325.585 358.011 311.13 364.847 299.567C387.154 261.623 405.504 218.079 415.938 191.338C420.255 180.497 429.07 172.005 440.224 168.391C487.717 152.852 515.961 129.725 531.253 112.379C540.787 101.719 555.179 97.3824 569.031 100.454C603.751 108.223 661.679 133.519 718.706 213.02V212.658ZM436.266 27.6387C461.092 30.891 479.082 39.2024 492.035 48.9593C512.723 64.3174 512.723 95.7562 492.394 111.476C481.781 119.606 467.748 128.279 449.759 135.687C431.769 143.095 410.541 136.229 400.467 119.426C392.371 106.055 386.255 93.9494 381.577 83.6504C371.143 60.7037 384.995 33.7819 409.641 28.7227C417.557 27.0966 426.372 26.5546 436.086 27.8193L436.266 27.6387ZM195.383 77.8686C246.654 44.2615 291.089 43.5388 318.613 48.4172C332.465 50.7661 343.799 60.523 348.656 73.7129C354.952 91.2391 366.466 116.896 386.435 147.432C393.451 158.092 394.89 171.643 390.212 183.568C380.498 208.502 363.947 247.711 344.159 282.041C336.603 295.05 322.391 302.458 307.459 301.554C278.676 299.567 235.5 295.772 202.759 288.184C190.346 285.293 179.912 277.162 174.875 265.418C167.858 248.433 155.086 224.041 133.138 196.397C123.963 184.833 121.805 168.933 127.921 155.382C137.816 133.338 157.604 102.984 195.563 78.2299L195.383 77.8686ZM43.3691 252.408C48.4063 239.58 55.0625 229.642 62.0785 222.054C78.4492 204.166 107.952 206.515 121.985 226.39C129.9 237.592 136.196 247.891 140.874 257.106C150.228 274.813 145.011 297.037 128.461 308.42C114.429 317.996 100.936 324.682 88.8833 329.56C63.5177 339.498 35.8134 320.345 35.6335 293.062C35.6335 280.776 37.6123 267.044 43.1892 252.589L43.3691 252.408ZM70.3538 609.8C11.1674 527.95 26.0989 437.247 39.951 391.173C44.0887 377.441 55.0625 367.323 68.9146 364.251C91.4018 359.192 123.963 347.448 157.964 320.526C167.499 312.937 180.092 310.408 191.965 313.299C228.484 322.333 277.057 326.669 307.819 328.657C321.491 329.56 333.724 337.51 340.021 349.797L410.181 483.502C416.478 495.608 416.118 510.063 409.282 522.168C381.397 570.953 353.333 649.189 339.121 691.107C334.264 705.562 321.671 715.861 306.74 717.848C255.289 724.714 151.128 721.643 70.5337 609.98L70.3538 609.8ZM530.173 761.393C468.648 778.919 416.298 757.599 384.456 738.266C368.445 728.509 361.429 709.175 367.545 691.469C381.757 650.273 406.403 582.878 430.33 539.695C437.885 526.143 452.277 518.013 467.569 519.097C503.188 521.807 545.285 529.938 572.989 535.9C586.301 538.791 596.915 548.367 601.773 561.196C612.207 589.202 626.419 611.787 637.752 627.145C646.567 639.07 648.006 654.971 641.35 668.341C626.239 698.877 593.857 743.325 530.173 761.393ZM735.617 566.255C728.241 583.42 719.246 595.887 710.251 604.56C692.441 621.725 663.298 617.75 649.985 596.971C644.228 587.937 638.292 577.457 633.075 565.532C624.799 547.103 631.636 525.059 649.086 514.58C664.377 505.365 679.129 499.041 691.901 494.705C717.987 486.032 745.511 506.088 743.712 533.732C743.172 543.489 740.834 554.33 735.617 566.255Z" fill="#C4D93E"/>
</svg>
