<svg width="305" height="66" viewBox="0 0 305 66" fill="none" xmlns="http://www.w3.org/2000/svg">
<path d="M14.5892 22.6898C14.5892 21.4425 14.8744 20.2873 15.4365 19.2158C15.9986 18.1526 16.7956 17.2234 17.819 16.4532C18.8425 15.6747 20.0589 15.0636 21.4851 14.6283C22.9028 14.1846 24.4548 13.967 26.1326 13.967C28.5152 13.967 30.7802 14.3521 32.9362 15.1306C35.0922 15.9091 36.8707 16.9974 38.2717 18.3954L35.3858 21.8694C35.0838 20.9235 34.6224 20.0361 34.01 19.199C33.3976 18.3619 32.6845 17.6252 31.8792 16.9806C31.0738 16.3444 30.1762 15.8338 29.2031 15.4487C28.2215 15.072 27.2064 14.8794 26.1326 14.8794C25.0588 14.8794 24.0354 15.0887 23.1293 15.4989C22.2317 15.9091 21.4599 16.4449 20.8139 17.0978C20.1764 17.7508 19.6814 18.5042 19.3458 19.3581C19.0103 20.2119 18.8425 21.0825 18.8425 21.9615C18.8425 23.3009 19.3291 24.3892 20.3106 25.2263C21.2837 26.0634 22.5169 26.8001 23.9934 27.4196C25.4699 28.0474 27.0806 28.6334 28.8004 29.1775C30.5285 29.73 32.1309 30.3746 33.6073 31.1197C35.0838 31.8647 36.317 32.7855 37.2902 33.8822C38.2633 34.9788 38.7583 36.3936 38.7583 38.1348C38.7583 39.876 38.3724 41.3493 37.5922 42.4794C36.812 43.6096 35.8053 44.4969 34.5721 45.1499C33.3389 45.8028 31.9799 46.2549 30.495 46.4976C29.0101 46.7404 27.5588 46.866 26.1242 46.866C25.1176 46.866 24.027 46.7404 22.8525 46.4976C21.678 46.2549 20.5203 45.9117 19.371 45.468C18.2301 45.0243 17.1311 44.5053 16.0993 43.9109C15.059 43.3166 14.1949 42.672 13.4902 41.9688L16.3761 38.4947C16.8962 39.3821 17.4919 40.2611 18.163 41.1484C18.8341 42.0358 19.5807 42.831 20.4029 43.551C21.225 44.2709 22.1226 44.8485 23.079 45.2838C24.0438 45.7275 25.0588 45.9451 26.1242 45.9451C27.1897 45.9451 28.2886 45.8112 29.3037 45.5349C30.3272 45.2587 31.2248 44.8318 32.005 44.2541C32.7852 43.6765 33.406 42.9399 33.8842 42.0358C34.354 41.14 34.5973 40.0769 34.5973 38.8631C34.5973 37.6492 34.1023 36.5945 33.1124 35.7992C32.1225 35.0039 30.8809 34.3007 29.4044 33.6729C27.9195 33.0451 26.3172 32.4507 24.5974 31.8898C22.8693 31.3289 21.2669 30.6509 19.7905 29.8556C18.3056 29.0603 17.0724 28.106 16.0825 26.9759C15.0926 25.8458 14.5976 24.4143 14.5976 22.6814L14.5892 22.6898Z" fill="currentColor"/>
<path d="M56.418 14.4189L66.4011 46.4138H62.0471L58.9347 36.36H45.9316L42.6766 46.4138H41.6699L52.1144 14.4189H56.418ZM58.6663 35.4475L52.5758 15.9341L46.2588 35.4475H58.6663Z" fill="currentColor"/>
<path d="M95.418 14.4189H91.1144L85.5273 31.5633L80.1666 14.4189H75.863L68.749 36.2093H69.7389L76.316 15.9258L85.7957 46.4138H90.1497L85.9803 33.1119L91.5674 15.9258L101.047 46.4138H105.401L95.418 14.4189Z" fill="currentColor"/>
<path d="M111.281 14.4189H124.284C129.779 14.4189 132.531 17.1647 132.531 22.6479C132.531 26.3982 131.264 28.8593 128.731 30.0481C133.101 30.5336 135.283 33.2459 135.283 38.1849C135.283 43.6681 132.531 46.4138 127.036 46.4138H111.281V14.4189ZM121.08 29.956C125.962 29.956 128.412 27.5199 128.412 22.6395C128.412 17.7591 125.971 15.3314 121.08 15.3314H115.4V29.956H121.08ZM123.823 45.5014C128.705 45.5014 131.147 43.0653 131.147 38.1849C131.147 33.3045 128.705 30.8768 123.823 30.8768H115.392V45.5014H123.823Z" fill="currentColor"/>
<path d="M154.15 14.4189L164.133 46.4138H159.779L156.667 36.36H143.664L140.409 46.4138H139.402L149.847 14.4189H154.15ZM156.39 35.4475L150.3 15.9341L143.983 35.4475H156.39Z" fill="currentColor"/>
<path d="M199.176 15.3147H192.431V35.5647H189.746V15.3147H183.035V14.7203H199.176V15.3147Z" fill="currentColor"/>
<path d="M216.39 14.7203C217.624 14.7203 218.655 15.0217 219.478 15.6161C220.3 16.2104 220.92 16.9555 221.323 17.8344C221.734 18.7218 221.936 19.6761 221.936 20.7058C221.936 21.7354 221.734 22.6981 221.323 23.5771C220.912 24.4561 220.3 25.2011 219.478 25.7955C218.655 26.3899 217.624 26.6912 216.39 26.6912H215.317L221.969 35.5647H218.924L212.271 26.6912H208.807V35.5647H206.122V14.7203H216.382H216.39ZM214.301 26.0969C215.392 26.0969 216.306 25.829 217.028 25.2932C217.749 24.7575 218.303 24.0961 218.672 23.3009C219.041 22.5056 219.226 21.6434 219.226 20.7058C219.226 19.7682 219.041 18.9143 218.672 18.1191C218.303 17.3238 217.758 16.6625 217.028 16.1267C216.298 15.5909 215.392 15.3231 214.301 15.3231H208.815V26.1052H214.301V26.0969Z" fill="currentColor"/>
<path d="M228.924 14.7203H231.608V35.5647H228.924V14.7203Z" fill="currentColor"/>
<path d="M248.169 14.7203L254.67 35.5647H251.835L249.804 29.0184H241.331L239.209 35.5647H238.555L245.358 14.7203H248.16H248.169ZM249.628 28.4157L245.66 15.6998L241.541 28.4157H249.628Z" fill="currentColor"/>
<path d="M264.31 14.7203V34.9704H274.486V35.5647H261.625V14.7203H264.31Z" fill="currentColor"/>
<path d="M277.791 20.1114C277.791 19.2994 277.975 18.546 278.344 17.8512C278.714 17.1564 279.225 16.5537 279.896 16.0514C280.559 15.5407 281.356 15.1473 282.287 14.8627C283.21 14.5781 284.225 14.4274 285.316 14.4274C286.868 14.4274 288.344 14.6785 289.745 15.1892C291.146 15.6998 292.304 16.403 293.218 17.3154L291.339 19.5757C291.138 18.9562 290.844 18.3786 290.442 17.8345C290.039 17.2903 289.578 16.8048 289.057 16.3946C288.529 15.976 287.95 15.6496 287.312 15.3984C286.675 15.1473 286.012 15.0301 285.316 15.0301C284.62 15.0301 283.948 15.164 283.361 15.4319C282.774 15.6998 282.271 16.0514 281.851 16.47C281.432 16.8885 281.113 17.3908 280.895 17.9433C280.677 18.4958 280.568 19.065 280.568 19.6427C280.568 20.5133 280.886 21.2248 281.524 21.769C282.162 22.3131 282.959 22.7902 283.923 23.2004C284.888 23.6106 285.928 23.9873 287.052 24.3473C288.177 24.7073 289.217 25.1258 290.182 25.6114C291.146 26.0969 291.943 26.6996 292.581 27.4112C293.218 28.1227 293.537 29.0519 293.537 30.1821C293.537 31.3122 293.286 32.2749 292.774 33.0115C292.262 33.7482 291.608 34.3258 290.802 34.7528C289.997 35.1797 289.116 35.4727 288.151 35.6317C287.187 35.7908 286.239 35.8661 285.299 35.8661C284.645 35.8661 283.932 35.7824 283.168 35.6317C282.405 35.4727 281.65 35.2467 280.903 34.962C280.157 34.6774 279.443 34.3342 278.772 33.9491C278.093 33.564 277.531 33.1371 277.069 32.6851L278.949 30.4248C279.284 31.0024 279.678 31.5801 280.115 32.1493C280.551 32.7269 281.037 33.2459 281.574 33.7147C282.111 34.1835 282.698 34.5602 283.319 34.8448C283.948 35.1378 284.603 35.2801 285.307 35.2801C286.012 35.2801 286.717 35.1881 287.38 35.0123C288.051 34.8365 288.63 34.5518 289.141 34.1751C289.653 33.7984 290.056 33.3129 290.366 32.7269C290.676 32.1409 290.828 31.4545 290.828 30.6592C290.828 29.8639 290.509 29.1775 289.854 28.6669C289.208 28.1478 288.403 27.6874 287.438 27.2856C286.474 26.8838 285.433 26.4903 284.309 26.122C283.185 25.7537 282.145 25.31 281.18 24.7993C280.215 24.2803 279.41 23.6609 278.764 22.9242C278.118 22.1875 277.799 21.2583 277.799 20.1282L277.791 20.1114Z" fill="currentColor"/>
</svg>
