<svg width="360" height="66" viewBox="0 0 360 66" fill="none" xmlns="http://www.w3.org/2000/svg">
<path d="M69.5892 22.6898C69.5892 21.4425 69.8744 20.2873 70.4365 19.2158C70.9986 18.1526 71.7956 17.2234 72.819 16.4532C73.8425 15.6747 75.0589 15.0636 76.4851 14.6283C77.9028 14.1846 79.4548 13.967 81.1326 13.967C83.5152 13.967 85.7802 14.3521 87.9362 15.1306C90.0922 15.9091 91.8707 16.9974 93.2717 18.3954L90.3858 21.8694C90.0838 20.9235 89.6224 20.0361 89.01 19.199C88.3976 18.3619 87.6845 17.6252 86.8792 16.9806C86.0738 16.3444 85.1762 15.8338 84.2031 15.4487C83.2215 15.072 82.2064 14.8794 81.1326 14.8794C80.0588 14.8794 79.0354 15.0887 78.1293 15.4989C77.2317 15.9091 76.4599 16.4449 75.8139 17.0978C75.1764 17.7508 74.6814 18.5042 74.3458 19.3581C74.0103 20.2119 73.8425 21.0825 73.8425 21.9615C73.8425 23.3009 74.3291 24.3892 75.3106 25.2263C76.2837 26.0634 77.5169 26.8001 78.9934 27.4196C80.4699 28.0474 82.0806 28.6334 83.8004 29.1775C85.5285 29.73 87.1309 30.3746 88.6073 31.1197C90.0838 31.8647 91.317 32.7855 92.2902 33.8822C93.2633 34.9788 93.7583 36.3936 93.7583 38.1348C93.7583 39.876 93.3724 41.3493 92.5922 42.4794C91.812 43.6096 90.8053 44.4969 89.5721 45.1499C88.3389 45.8028 86.9799 46.2549 85.495 46.4976C84.0101 46.7404 82.5588 46.866 81.1242 46.866C80.1176 46.866 79.027 46.7404 77.8525 46.4976C76.678 46.2549 75.5203 45.9117 74.371 45.468C73.2301 45.0243 72.1311 44.5053 71.0993 43.9109C70.059 43.3166 69.1949 42.672 68.4902 41.9688L71.3761 38.4947C71.8962 39.3821 72.4919 40.2611 73.163 41.1484C73.8341 42.0358 74.5807 42.831 75.4029 43.551C76.225 44.2709 77.1226 44.8485 78.079 45.2838C79.0438 45.7275 80.0588 45.9451 81.1242 45.9451C82.1897 45.9451 83.2886 45.8112 84.3037 45.5349C85.3272 45.2587 86.2248 44.8318 87.005 44.2541C87.7852 43.6765 88.406 42.9399 88.8842 42.0358C89.354 41.14 89.5973 40.0769 89.5973 38.8631C89.5973 37.6492 89.1023 36.5945 88.1124 35.7992C87.1225 35.0039 85.8809 34.3007 84.4044 33.6729C82.9195 33.0451 81.3172 32.4507 79.5974 31.8898C77.8693 31.3289 76.2669 30.6509 74.7905 29.8556C73.3056 29.0603 72.0724 28.106 71.0825 26.9759C70.0926 25.8458 69.5976 24.4143 69.5976 22.6814L69.5892 22.6898Z" fill="white"/>
<path d="M111.418 14.4189L121.401 46.4138H117.047L113.935 36.36H100.932L97.6766 46.4138H96.6699L107.114 14.4189H111.418ZM113.666 35.4475L107.576 15.9341L101.259 35.4475H113.666Z" fill="white"/>
<path d="M150.418 14.4189H146.114L140.527 31.5633L135.167 14.4189H130.863L123.749 36.2093H124.739L131.316 15.9258L140.796 46.4138H145.15L140.98 33.1119L146.567 15.9258L156.047 46.4138H160.401L150.418 14.4189Z" fill="white"/>
<path d="M166.281 14.4189H179.284C184.779 14.4189 187.531 17.1647 187.531 22.6479C187.531 26.3982 186.264 28.8593 183.731 30.0481C188.101 30.5336 190.283 33.2459 190.283 38.1849C190.283 43.6681 187.531 46.4138 182.036 46.4138H166.281V14.4189ZM176.08 29.956C180.962 29.956 183.412 27.5199 183.412 22.6395C183.412 17.7591 180.971 15.3314 176.08 15.3314H170.4V29.956H176.08ZM178.823 45.5014C183.705 45.5014 186.147 43.0653 186.147 38.1849C186.147 33.3045 183.705 30.8768 178.823 30.8768H170.392V45.5014H178.823Z" fill="white"/>
<path d="M209.15 14.4189L219.133 46.4138H214.779L211.667 36.36H198.664L195.409 46.4138H194.402L204.847 14.4189H209.15ZM211.39 35.4475L205.3 15.9341L198.983 35.4475H211.39Z" fill="white"/>
<path d="M254.176 15.3147H247.431V35.5647H244.746V15.3147H238.035V14.7203H254.176V15.3147Z" fill="white"/>
<path d="M271.39 14.7203C272.624 14.7203 273.655 15.0217 274.478 15.6161C275.3 16.2104 275.92 16.9555 276.323 17.8344C276.734 18.7218 276.936 19.6761 276.936 20.7058C276.936 21.7354 276.734 22.6981 276.323 23.5771C275.912 24.4561 275.3 25.2011 274.478 25.7955C273.655 26.3899 272.624 26.6912 271.39 26.6912H270.317L276.969 35.5647H273.924L267.271 26.6912H263.807V35.5647H261.122V14.7203H271.382H271.39ZM269.301 26.0969C270.392 26.0969 271.306 25.829 272.028 25.2932C272.749 24.7575 273.303 24.0961 273.672 23.3009C274.041 22.5056 274.226 21.6434 274.226 20.7058C274.226 19.7682 274.041 18.9143 273.672 18.1191C273.303 17.3238 272.758 16.6625 272.028 16.1267C271.298 15.5909 270.392 15.3231 269.301 15.3231H263.815V26.1052H269.301V26.0969Z" fill="white"/>
<path d="M283.924 14.7203H286.608V35.5647H283.924V14.7203Z" fill="white"/>
<path d="M303.169 14.7203L309.67 35.5647H306.835L304.804 29.0184H296.331L294.209 35.5647H293.555L300.358 14.7203H303.16H303.169ZM304.628 28.4157L300.66 15.6998L296.541 28.4157H304.628Z" fill="white"/>
<path d="M319.31 14.7203V34.9704H329.486V35.5647H316.625V14.7203H319.31Z" fill="white"/>
<path d="M332.791 20.1114C332.791 19.2994 332.975 18.546 333.344 17.8512C333.714 17.1564 334.225 16.5537 334.896 16.0514C335.559 15.5407 336.356 15.1473 337.287 14.8627C338.21 14.5781 339.225 14.4274 340.316 14.4274C341.868 14.4274 343.344 14.6785 344.745 15.1892C346.146 15.6998 347.304 16.403 348.218 17.3154L346.339 19.5757C346.138 18.9562 345.844 18.3786 345.442 17.8345C345.039 17.2903 344.578 16.8048 344.057 16.3946C343.529 15.976 342.95 15.6496 342.312 15.3984C341.675 15.1473 341.012 15.0301 340.316 15.0301C339.62 15.0301 338.948 15.164 338.361 15.4319C337.774 15.6998 337.271 16.0514 336.851 16.47C336.432 16.8885 336.113 17.3908 335.895 17.9433C335.677 18.4958 335.568 19.065 335.568 19.6427C335.568 20.5133 335.886 21.2248 336.524 21.769C337.162 22.3131 337.959 22.7902 338.923 23.2004C339.888 23.6106 340.928 23.9873 342.052 24.3473C343.177 24.7073 344.217 25.1258 345.182 25.6114C346.146 26.0969 346.943 26.6996 347.581 27.4112C348.218 28.1227 348.537 29.0519 348.537 30.1821C348.537 31.3122 348.286 32.2749 347.774 33.0115C347.262 33.7482 346.608 34.3258 345.802 34.7528C344.997 35.1797 344.116 35.4727 343.151 35.6317C342.187 35.7908 341.239 35.8661 340.299 35.8661C339.645 35.8661 338.932 35.7824 338.168 35.6317C337.405 35.4727 336.65 35.2467 335.903 34.962C335.157 34.6774 334.443 34.3342 333.772 33.9491C333.093 33.564 332.531 33.1371 332.069 32.6851L333.949 30.4248C334.284 31.0024 334.678 31.5801 335.115 32.1493C335.551 32.7269 336.037 33.2459 336.574 33.7147C337.111 34.1835 337.698 34.5602 338.319 34.8448C338.948 35.1378 339.603 35.2801 340.307 35.2801C341.012 35.2801 341.717 35.1881 342.38 35.0123C343.051 34.8365 343.63 34.5518 344.141 34.1751C344.653 33.7984 345.056 33.3129 345.366 32.7269C345.676 32.1409 345.828 31.4545 345.828 30.6592C345.828 29.8639 345.509 29.1775 344.854 28.6669C344.208 28.1478 343.403 27.6874 342.438 27.2856C341.474 26.8838 340.433 26.4903 339.309 26.122C338.185 25.7537 337.145 25.31 336.18 24.7993C335.215 24.2803 334.41 23.6609 333.764 22.9242C333.118 22.1875 332.799 21.2583 332.799 20.1282L332.791 20.1114Z" fill="white"/>
<path d="M348.612 45.2754H238.211V46.4139H348.612V45.2754Z" fill="white"/>
<path d="M47.4263 21.1244C44.2385 16.7044 40.908 15.5826 39.1211 15.3147C38.6094 15.2394 38.148 14.9715 37.846 14.5446C37.1748 13.5903 35.8494 12.3513 33.3913 12.0416C31.8729 11.849 30.6817 12.3597 29.9182 12.862C29.482 13.155 28.9451 13.2303 28.4418 13.1131C26.9653 12.7531 24.3395 12.6025 21.3194 14.5613C18.9956 16.0682 17.9554 17.9601 17.494 19.1823C17.3178 19.651 16.9571 20.0278 16.504 20.237C15.6232 20.6556 14.4403 21.5011 13.7524 23.2256C12.989 25.151 13.3581 26.8503 13.744 27.8465C13.9034 28.2567 13.9034 28.7087 13.744 29.1189C12.989 31.2201 11.7474 36.3015 15.1534 40.981C18.5342 45.627 22.7623 46.5813 25.665 46.5813C26.5542 46.5813 27.3092 46.4893 27.8881 46.3888C28.3914 46.2967 28.9116 46.4139 29.3226 46.7237C30.4719 47.5775 32.6447 48.8332 35.4131 48.8332C36.2101 48.8332 37.0658 48.7244 37.955 48.4732C41.7721 47.3934 43.4751 44.6225 44.163 43.0068C44.3643 42.538 44.7418 42.1697 45.22 41.9855C46.1847 41.6005 47.4851 40.7298 48.3491 38.7207C49.1209 36.9209 48.8441 35.4727 48.4414 34.5602C48.2317 34.0747 48.1981 33.5306 48.4163 33.0534C49.3894 30.8685 50.8827 25.9127 47.4263 21.116V21.1244ZM46.4029 21.8527C49.4313 26.0467 48.2652 30.2909 47.3844 32.3167C47.1411 32.8692 46.6545 33.2794 46.0589 33.3883C44.9767 33.5892 43.3157 34.0914 41.5875 35.3639C41.1681 35.6736 40.6395 35.7741 40.1362 35.6652C38.7939 35.3722 36.5373 34.9369 34.6329 34.803C33.9954 34.7611 33.4333 34.3928 33.1313 33.8319L29.8679 27.6456C29.5743 27.0847 29.5827 26.415 29.9015 25.8793C30.9417 24.1213 31.7974 22.1038 32.284 20.8649C32.4853 20.3626 32.8964 19.9692 33.4165 19.8017C35.6312 19.0818 36.9483 18.0103 37.6614 17.2066C38.106 16.7127 38.7772 16.5118 39.4231 16.6541C41.0422 17.0141 43.7435 18.1861 46.4029 21.8694V21.8527ZM33.2319 13.2805C34.3896 13.4312 35.2286 13.8163 35.8326 14.2683C36.7973 14.9799 36.7973 16.4365 35.8494 17.1648C35.3544 17.5415 34.7 17.9433 33.8611 18.2865C33.0222 18.6298 32.0323 18.3116 31.5625 17.5331C31.185 16.9136 30.8998 16.3528 30.6817 15.8756C30.1951 14.8125 30.841 13.5652 31.9904 13.3308C32.3595 13.2554 32.7705 13.2303 33.2236 13.2889L33.2319 13.2805ZM21.9989 15.6077C24.3898 14.0507 26.4619 14.0172 27.7455 14.2432C28.3914 14.352 28.9199 14.8041 29.1464 15.4152C29.4401 16.2272 29.977 17.4159 30.9082 18.8307C31.2353 19.3246 31.3024 19.9524 31.0843 20.5049C30.6313 21.6601 29.8595 23.4767 28.9367 25.0672C28.5844 25.67 27.9216 26.0132 27.2253 25.9713C25.8831 25.8793 23.8697 25.7035 22.3429 25.3519C21.764 25.2179 21.2775 24.8412 21.0426 24.2971C20.7154 23.5102 20.1198 22.3801 19.0963 21.0993C18.6684 20.5635 18.5678 19.8268 18.853 19.199C19.3144 18.1777 20.2372 16.7713 22.0073 15.6245L21.9989 15.6077ZM14.9101 23.6944C15.145 23.1 15.4554 22.6396 15.7826 22.288C16.546 21.4592 17.9218 21.5681 18.5762 22.4889C18.9453 23.0079 19.2389 23.4851 19.457 23.912C19.8932 24.7324 19.65 25.7621 18.8782 26.2894C18.2238 26.7331 17.5946 27.0429 17.0326 27.2689C15.8497 27.7293 14.5578 26.8419 14.5494 25.5779C14.5494 25.0086 14.6417 24.3724 14.9017 23.7027L14.9101 23.6944ZM16.1685 40.2527C13.4085 36.4605 14.1048 32.2581 14.7507 30.1235C14.9437 29.4873 15.4554 29.0185 16.1014 28.8762C17.15 28.6418 18.6684 28.0976 20.254 26.8503C20.6986 26.4987 21.2858 26.3815 21.8395 26.5155C23.5425 26.934 25.8076 27.1349 27.2421 27.227C27.8797 27.2689 28.4501 27.6372 28.7438 28.2065L32.0155 34.4012C32.3091 34.9621 32.2924 35.6318 31.9736 36.1926C30.6733 38.4529 29.3646 42.0776 28.7018 44.0197C28.4753 44.6894 27.8881 45.1666 27.1918 45.2587C24.7925 45.5768 19.9352 45.4345 16.1769 40.2611L16.1685 40.2527ZM37.6111 47.2762C34.742 48.0882 32.3008 47.1004 30.8159 46.2046C30.0692 45.7526 29.7421 44.8569 30.0273 44.0365C30.69 42.1278 31.8394 39.0054 32.9551 37.0046C33.3075 36.3768 33.9786 36.0001 34.6917 36.0503C36.3527 36.1759 38.3158 36.5526 39.6077 36.8288C40.2285 36.9628 40.7234 37.4065 40.9499 38.0008C41.4365 39.2984 42.0992 40.3448 42.6278 41.0563C43.0388 41.6088 43.1059 42.3455 42.7955 42.965C42.0909 44.3797 40.5808 46.439 37.6111 47.2762ZM47.1914 38.2352C46.8475 39.0305 46.428 39.6081 46.0086 40.0099C45.1781 40.8052 43.819 40.621 43.1982 39.6583C42.9298 39.2398 42.6529 38.7542 42.4096 38.2017C42.0237 37.3479 42.3425 36.3266 43.1563 35.841C43.8693 35.4141 44.5573 35.1211 45.1529 34.9202C46.3693 34.5184 47.6528 35.4476 47.569 36.7284C47.5438 37.1804 47.4347 37.6827 47.1914 38.2352Z" fill="white"/>
</svg>
